<?xml version="1.0" encoding="UTF-8" standalone="no"?>
<!DOCTYPE svg PUBLIC "-//W3C//DTD SVG 1.1//EN" "http://www.w3.org/Graphics/SVG/1.1/DTD/svg11.dtd">
<svg width="100%" height="100%" viewBox="0 0 1496 1425" version="1.1" xmlns="http://www.w3.org/2000/svg" xmlns:xlink="http://www.w3.org/1999/xlink" xml:space="preserve" xmlns:serif="http://www.serif.com/" style="fill-rule:evenodd;clip-rule:evenodd;stroke-linejoin:round;stroke-miterlimit:2;">
    <g transform="matrix(4.16667,0,0,4.16667,0,0)">
        <path d="M237.67,87.288C236.218,87.288 235.042,88.464 235.042,89.915L235.042,95.961C235.042,97.413 236.218,98.589 237.67,98.589C239.122,98.589 240.298,97.413 240.298,95.961L240.298,89.915C240.298,88.464 239.122,87.288 237.67,87.288Z" style="fill:rgb(223,109,38);fill-rule:nonzero;"/>
        <path d="M237.67,132.517C236.218,132.517 235.042,133.693 235.042,135.145L235.042,147.638C235.042,149.089 236.218,150.266 237.67,150.266C239.122,150.266 240.298,149.089 240.298,147.638L240.298,135.145C240.298,133.693 239.122,132.517 237.67,132.517Z" style="fill:rgb(223,109,38);fill-rule:nonzero;"/>
        <path d="M237.67,104.111C236.218,104.111 235.042,105.287 235.042,106.739L235.042,125.307C235.042,126.759 236.218,127.935 237.67,127.935C239.122,127.935 240.298,126.759 240.298,125.307L240.298,106.739C240.298,105.287 239.122,104.111 237.67,104.111Z" style="fill:rgb(223,109,38);fill-rule:nonzero;"/>
        <path d="M261.133,102.968C259.681,102.968 258.506,104.145 258.506,105.596L258.506,124.866C258.506,126.317 259.681,127.494 261.133,127.494C262.585,127.494 263.76,126.317 263.76,124.866L263.76,105.596C263.76,104.145 262.585,102.968 261.133,102.968Z" style="fill:rgb(223,109,38);fill-rule:nonzero;"/>
        <path d="M261.133,131.872C259.681,131.872 258.506,133.048 258.506,134.499L258.506,154.382C258.506,155.833 259.681,157.01 261.133,157.01C262.585,157.01 263.76,155.833 263.76,154.382L263.76,134.499C263.76,133.048 262.585,131.872 261.133,131.872Z" style="fill:rgb(223,109,38);fill-rule:nonzero;"/>
        <path d="M261.133,89.183C259.681,89.183 258.506,90.358 258.506,91.809L258.506,95.961C258.506,97.413 259.681,98.589 261.133,98.589C262.585,98.589 263.76,97.413 263.76,95.961L263.76,91.809C263.76,90.358 262.585,89.183 261.133,89.183Z" style="fill:rgb(223,109,38);fill-rule:nonzero;"/>
        <path d="M237.67,190.308C236.218,190.308 235.042,189.132 235.042,187.68L235.042,173.154C235.042,171.702 236.218,170.526 237.67,170.526C239.122,170.526 240.298,171.702 240.298,173.154L240.298,187.68C240.298,189.132 239.122,190.308 237.67,190.308Z" style="fill:rgb(189,187,187);fill-rule:nonzero;"/>
        <path d="M237.67,154.844C236.218,154.844 235.042,156.02 235.042,157.472L235.042,163.518C235.042,164.969 236.218,166.146 237.67,166.146C239.122,166.146 240.298,164.969 240.298,163.518L240.298,157.472C240.298,156.02 239.122,154.844 237.67,154.844Z" style="fill:rgb(223,109,38);fill-rule:nonzero;"/>
        <path d="M249.242,95.999C247.791,95.999 246.614,97.175 246.614,98.627L246.614,117.895C246.614,119.347 247.791,120.523 249.242,120.523C250.694,120.523 251.87,119.347 251.87,117.895L251.87,98.627C251.87,97.175 250.694,95.999 249.242,95.999Z" style="fill:rgb(223,109,38);fill-rule:nonzero;"/>
        <path d="M249.242,124.904C247.791,124.904 246.614,126.08 246.614,127.531L246.614,132.743C246.614,134.195 247.791,135.371 249.242,135.371C250.694,135.371 251.87,134.195 251.87,132.743L251.87,127.531C251.87,126.08 250.694,124.904 249.242,124.904Z" style="fill:rgb(223,109,38);fill-rule:nonzero;"/>
        <path d="M249.242,67.742C247.791,67.742 246.614,68.918 246.614,70.37L246.614,88.992C246.614,90.444 247.791,91.62 249.242,91.62C250.694,91.62 251.87,90.444 251.87,88.992L251.87,70.37C251.87,68.918 250.694,67.742 249.242,67.742Z" style="fill:rgb(223,109,38);fill-rule:nonzero;"/>
        <path d="M249.242,177.569C247.791,177.569 246.614,176.393 246.614,174.941L246.614,166.184C246.614,164.732 247.791,163.556 249.242,163.556C250.694,163.556 251.87,164.732 251.87,166.184L251.87,174.941C251.87,176.393 250.694,177.569 249.242,177.569Z" style="fill:rgb(189,187,187);fill-rule:nonzero;"/>
        <path d="M249.242,140.784C247.791,140.784 246.614,141.959 246.614,143.412L246.614,156.549C246.614,158 247.791,159.177 249.242,159.177C250.694,159.177 251.87,158 251.87,156.549L251.87,143.412C251.87,141.959 250.694,140.784 249.242,140.784Z" style="fill:rgb(223,109,38);fill-rule:nonzero;"/>
        <path d="M237.67,80.569C236.218,80.569 235.042,79.393 235.042,77.941L235.042,57.627C235.042,56.175 236.218,54.999 237.67,54.999C239.122,54.999 240.298,56.175 240.298,57.627L240.298,77.941C240.298,79.393 239.122,80.569 237.67,80.569Z" style="fill:rgb(189,187,187);fill-rule:nonzero;"/>
        <path d="M96.082,102.968C94.63,102.968 93.454,104.145 93.454,105.596L93.454,124.866C93.454,126.317 94.63,127.494 96.082,127.494C97.533,127.494 98.71,126.317 98.71,124.866L98.71,105.596C98.71,104.145 97.533,102.968 96.082,102.968Z" style="fill:rgb(57,172,173);fill-rule:nonzero;"/>
        <path d="M96.328,87.288C94.877,87.288 93.7,88.464 93.7,89.915L93.454,95.961C93.454,97.413 94.63,98.589 96.082,98.589C97.533,98.589 98.71,97.413 98.71,95.961L98.956,89.915C98.956,88.464 97.781,87.288 96.328,87.288Z" style="fill:rgb(57,172,173);fill-rule:nonzero;"/>
        <path d="M96.082,131.872C94.63,131.872 93.454,133.048 93.454,134.499L93.454,155.059C93.454,156.511 94.63,157.687 96.082,157.687C97.533,157.687 98.71,156.511 98.71,155.059L98.71,134.499C98.71,133.048 97.533,131.872 96.082,131.872Z" style="fill:rgb(57,172,173);fill-rule:nonzero;"/>
        <path d="M119.546,132.372C118.094,132.372 116.918,133.548 116.918,135L116.918,147.638C116.918,149.089 118.094,150.266 119.546,150.266C120.998,150.266 122.174,149.089 122.174,147.638L122.174,135C122.174,133.548 120.998,132.372 119.546,132.372Z" style="fill:rgb(57,172,173);fill-rule:nonzero;"/>
        <path d="M119.546,87.288C118.094,87.288 116.918,88.464 116.918,89.915L116.918,97.223C116.918,98.674 118.094,99.85 119.546,99.85C120.998,99.85 122.174,98.674 122.174,97.223L122.174,89.915C122.174,88.464 120.998,87.288 119.546,87.288Z" style="fill:rgb(57,172,173);fill-rule:nonzero;"/>
        <path d="M119.546,104.013C118.094,104.013 116.918,105.19 116.918,106.641L116.918,125.339C116.918,126.791 118.094,127.967 119.546,127.967C120.998,127.967 122.174,126.791 122.174,125.339L122.174,106.641C122.174,105.19 120.998,104.013 119.546,104.013Z" style="fill:rgb(57,172,173);fill-rule:nonzero;"/>
        <path d="M119.546,191.324C118.094,191.324 116.918,190.147 116.918,188.696L116.918,173.154C116.918,171.702 118.094,170.526 119.546,170.526C120.998,170.526 122.174,171.702 122.174,173.154L122.174,188.696C122.174,190.147 120.998,191.324 119.546,191.324Z" style="fill:rgb(189,187,187);fill-rule:nonzero;"/>
        <path d="M119.546,166.146C118.094,166.146 116.918,164.969 116.918,163.518L116.918,157.472C116.918,156.02 118.094,154.844 119.546,154.844C120.998,154.844 122.174,156.02 122.174,157.472L122.174,163.518C122.174,164.969 120.998,166.146 119.546,166.146Z" style="fill:rgb(189,187,187);fill-rule:nonzero;"/>
        <path d="M107.655,95.999C106.203,95.999 105.027,97.175 105.027,98.627L105.027,117.895C105.027,119.347 106.203,120.523 107.655,120.523C109.107,120.523 110.283,119.347 110.283,117.895L110.283,98.627C110.283,97.175 109.107,95.999 107.655,95.999Z" style="fill:rgb(57,172,173);fill-rule:nonzero;"/>
        <path d="M107.655,124.904C106.203,124.904 105.027,126.08 105.027,127.531L105.027,132.743C105.027,134.195 106.203,135.371 107.655,135.371C109.107,135.371 110.283,134.195 110.283,132.743L110.283,127.531C110.283,126.08 109.107,124.904 107.655,124.904Z" style="fill:rgb(57,172,173);fill-rule:nonzero;"/>
        <path d="M107.655,67.742C106.203,67.742 105.027,68.918 105.027,70.37L105.027,88.992C105.027,90.444 106.203,91.62 107.655,91.62C109.107,91.62 110.283,90.444 110.283,88.992L110.283,70.37C110.283,68.918 109.107,67.742 107.655,67.742Z" style="fill:rgb(57,172,173);fill-rule:nonzero;"/>
        <path d="M107.655,178.176C106.203,178.176 105.027,176.999 105.027,175.548L105.027,166.184C105.027,164.732 106.203,163.556 107.655,163.556C109.107,163.556 110.283,164.732 110.283,166.184L110.283,175.548C110.283,176.999 109.107,178.176 107.655,178.176Z" style="fill:rgb(189,187,187);fill-rule:nonzero;"/>
        <path d="M107.655,140.784C106.203,140.784 105.027,141.959 105.027,143.412L105.027,156.549C105.027,158 106.203,159.177 107.655,159.177C109.107,159.177 110.283,158 110.283,156.549L110.283,143.412C110.283,141.959 109.107,140.784 107.655,140.784Z" style="fill:rgb(57,172,173);fill-rule:nonzero;"/>
        <path d="M119.546,59.607C118.094,59.607 116.918,58.431 116.918,56.979L116.918,56.817C116.918,55.366 118.094,54.19 119.546,54.19C120.998,54.19 122.174,55.366 122.174,56.817L122.174,56.979C122.174,58.431 120.998,59.607 119.546,59.607Z" style="fill:rgb(189,187,187);fill-rule:nonzero;"/>
        <path d="M119.546,81.57C118.094,81.57 116.918,80.394 116.918,78.942L116.918,65.805C116.918,64.353 118.094,63.177 119.546,63.177C120.998,63.177 122.174,64.353 122.174,65.805L122.174,78.942C122.174,80.394 120.998,81.57 119.546,81.57Z" style="fill:rgb(189,187,187);fill-rule:nonzero;"/>
        <path d="M131.479,200.121C130.028,200.121 128.851,198.946 128.851,197.495L128.851,173.154C128.851,171.702 130.028,170.526 131.479,170.526C132.931,170.526 134.107,171.702 134.107,173.154L134.107,197.495C134.107,198.946 132.931,200.121 131.479,200.121Z" style="fill:rgb(189,187,187);fill-rule:nonzero;"/>
        <path d="M131.479,166.146C130.028,166.146 128.851,164.969 128.851,163.518L128.851,157.472C128.851,156.02 130.028,154.844 131.479,154.844C132.931,154.844 134.107,156.02 134.107,157.472L134.107,163.518C134.107,164.969 132.931,166.146 131.479,166.146Z" style="fill:rgb(189,187,187);fill-rule:nonzero;"/>
        <path d="M154.943,195.05C153.491,195.05 152.315,193.874 152.315,192.422L152.223,176.695C152.223,175.243 153.4,174.067 154.851,174.067C156.303,174.067 157.479,175.243 157.479,176.695L157.571,192.422C157.571,193.874 156.394,195.05 154.943,195.05Z" style="fill:rgb(189,187,187);fill-rule:nonzero;"/>
        <path d="M154.943,210.438C153.491,210.438 152.315,209.261 152.315,207.81L152.315,202.057C152.315,200.606 153.491,199.429 154.943,199.429C156.394,199.429 157.571,200.606 157.571,202.057L157.571,207.81C157.571,209.261 156.394,210.438 154.943,210.438Z" style="fill:rgb(189,187,187);fill-rule:nonzero;"/>
        <path d="M143.052,91.441C141.6,91.441 140.424,90.265 140.424,88.813L140.424,75.854C140.424,74.402 141.6,73.226 143.052,73.226C144.504,73.226 145.679,74.402 145.679,75.854L145.679,88.813C145.679,90.265 144.504,91.441 143.052,91.441Z" style="fill:rgb(189,187,187);fill-rule:nonzero;"/>
        <path d="M143.052,50.539C141.6,50.539 140.424,49.363 140.424,47.911L140.424,41.445C140.424,39.994 141.6,38.817 143.052,38.817C144.504,38.817 145.679,39.994 145.679,41.445L145.679,47.911C145.679,49.363 144.504,50.539 143.052,50.539Z" style="fill:rgb(189,187,187);fill-rule:nonzero;"/>
        <path d="M143.052,65.387C141.6,65.387 140.424,64.211 140.424,62.759L140.424,57.547C140.424,56.096 141.6,54.92 143.052,54.92C144.504,54.92 145.679,56.096 145.679,57.547L145.679,62.759C145.679,64.211 144.504,65.387 143.052,65.387Z" style="fill:rgb(189,187,187);fill-rule:nonzero;"/>
        <path d="M143.052,188.08C141.6,188.08 140.424,186.905 140.424,185.453L140.424,156.999C140.424,155.548 141.6,154.372 143.052,154.372C144.504,154.372 145.679,155.548 145.679,156.999L145.679,185.453C145.679,186.905 144.504,188.08 143.052,188.08Z" style="fill:rgb(189,187,187);fill-rule:nonzero;"/>
        <path d="M143.052,203.452C141.6,203.452 140.424,202.276 140.424,200.824L140.424,195.088C140.424,193.637 141.6,192.46 143.052,192.46C144.504,192.46 145.679,193.637 145.679,195.088L145.679,200.824C145.679,202.276 144.504,203.452 143.052,203.452Z" style="fill:rgb(189,187,187);fill-rule:nonzero;"/>
        <path d="M131.479,57.797C130.028,57.797 128.851,56.621 128.851,55.169L128.851,47.918C128.851,46.467 130.028,45.29 131.479,45.29C132.931,45.29 134.107,46.467 134.107,47.918L134.107,55.169C134.107,56.621 132.931,57.797 131.479,57.797Z" style="fill:rgb(189,187,187);fill-rule:nonzero;"/>
        <path d="M131.479,85.066C130.028,85.066 128.851,83.89 128.851,82.438L128.851,64.804C128.851,63.351 130.028,62.176 131.479,62.176C132.931,62.176 134.107,63.351 134.107,64.804L134.107,82.438C134.107,83.89 132.931,85.066 131.479,85.066Z" style="fill:rgb(189,187,187);fill-rule:nonzero;"/>
        <path d="M154.943,58.798C153.491,58.798 152.315,57.622 152.315,56.17L152.315,37.805C152.315,36.352 153.491,35.177 154.943,35.177C156.394,35.177 157.571,36.352 157.571,37.805L157.571,56.17C157.571,57.622 156.394,58.798 154.943,58.798Z" style="fill:rgb(189,187,187);fill-rule:nonzero;"/>
        <path d="M154.943,80.077C153.491,80.077 152.315,78.9 152.315,77.449L152.315,65.805C152.315,64.353 153.491,63.177 154.943,63.177C156.394,63.177 157.571,64.353 157.571,65.805L157.571,77.449C157.571,78.9 156.394,80.077 154.943,80.077Z" style="fill:rgb(189,187,187);fill-rule:nonzero;"/>
        <path d="M166.876,195.05C165.425,195.05 164.249,193.874 164.249,192.422L164.249,177.477C164.249,176.025 165.425,174.849 166.876,174.849C168.328,174.849 169.504,176.025 169.504,177.477L169.504,192.422C169.504,193.874 168.328,195.05 166.876,195.05Z" style="fill:rgb(189,187,187);fill-rule:nonzero;"/>
        <path d="M166.876,212.764C165.425,212.764 164.249,211.587 164.249,210.136L164.249,202.057C164.249,200.606 165.425,199.429 166.876,199.429C168.328,199.429 169.504,200.606 169.504,202.057L169.504,210.136C169.504,211.587 168.328,212.764 166.876,212.764Z" style="fill:rgb(189,187,187);fill-rule:nonzero;"/>
        <path d="M190.34,195.05C188.887,195.05 187.712,193.874 187.712,192.422L187.712,169.454C187.712,168.003 188.887,166.828 190.34,166.828C191.791,166.828 192.968,168.003 192.968,169.454L192.968,192.422C192.968,193.874 191.791,195.05 190.34,195.05Z" style="fill:rgb(189,187,187);fill-rule:nonzero;"/>
        <path d="M190.34,212.868C188.887,212.868 187.712,211.691 187.712,210.24L187.712,202.057C187.712,200.606 188.887,199.429 190.34,199.429C191.791,199.429 192.968,200.606 192.968,202.057L192.968,210.24C192.968,211.691 191.791,212.868 190.34,212.868Z" style="fill:rgb(189,187,187);fill-rule:nonzero;"/>
        <path d="M178.449,79.808C176.997,79.808 175.821,78.631 175.821,77.18L175.821,75.854C175.821,74.402 176.997,73.226 178.449,73.226C179.9,73.226 181.076,74.402 181.076,75.854L181.076,77.18C181.076,78.631 179.9,79.808 178.449,79.808Z" style="fill:rgb(189,187,187);fill-rule:nonzero;"/>
        <path d="M178.449,50.539C176.997,50.539 175.821,49.363 175.821,47.911L175.821,34.366C175.821,32.914 176.997,31.738 178.449,31.738C179.9,31.738 181.076,32.914 181.076,34.366L181.076,47.911C181.076,49.363 179.9,50.539 178.449,50.539Z" style="fill:rgb(189,187,187);fill-rule:nonzero;"/>
        <path d="M178.449,65.387C176.997,65.387 175.821,64.211 175.821,62.759L175.821,57.547C175.821,56.096 176.997,54.92 178.449,54.92C179.9,54.92 181.076,56.096 181.076,57.547L181.076,62.759C181.076,64.211 179.9,65.387 178.449,65.387Z" style="fill:rgb(189,187,187);fill-rule:nonzero;"/>
        <path d="M178.449,213.547C176.997,213.547 175.821,212.37 175.821,210.919L175.821,185.885C175.821,184.434 176.997,183.257 178.449,183.257C179.9,183.257 181.076,184.434 181.076,185.885L181.076,210.919C181.076,212.37 179.9,213.547 178.449,213.547Z" style="fill:rgb(189,187,187);fill-rule:nonzero;"/>
        <path d="M166.876,57.797C165.425,57.797 164.249,56.621 164.249,55.169L164.249,35.378C164.249,33.926 165.425,32.75 166.876,32.75C168.328,32.75 169.504,33.926 169.504,35.378L169.504,55.169C169.504,56.621 168.328,57.797 166.876,57.797Z" style="fill:rgb(189,187,187);fill-rule:nonzero;"/>
        <path d="M166.876,87.22C165.425,87.22 164.249,86.043 164.249,84.592L164.249,64.804C164.249,63.351 165.425,62.176 166.876,62.176C168.328,62.176 169.504,63.351 169.504,64.804L169.504,84.592C169.504,86.043 168.328,87.22 166.876,87.22Z" style="fill:rgb(189,187,187);fill-rule:nonzero;"/>
        <path d="M190.34,58.798C188.887,58.798 187.712,57.622 187.712,56.17L187.712,35.378C187.712,33.926 188.887,32.75 190.34,32.75C191.791,32.75 192.968,33.926 192.968,35.378L192.968,56.17C192.968,57.622 191.791,58.798 190.34,58.798Z" style="fill:rgb(189,187,187);fill-rule:nonzero;"/>
        <path d="M190.34,87.642C188.887,87.642 187.712,86.466 187.712,85.014L187.712,65.805C187.712,64.353 188.887,63.177 190.34,63.177C191.791,63.177 192.968,64.353 192.968,65.805L192.968,85.014C192.968,86.466 191.791,87.642 190.34,87.642Z" style="fill:rgb(189,187,187);fill-rule:nonzero;"/>
        <path d="M202.273,195.05C200.821,195.05 199.645,193.874 199.645,192.422L199.645,173.154C199.645,171.702 200.821,170.526 202.273,170.526C203.724,170.526 204.901,171.702 204.901,173.154L204.901,192.422C204.901,193.874 203.724,195.05 202.273,195.05Z" style="fill:rgb(189,187,187);fill-rule:nonzero;"/>
        <path d="M202.273,210.438C200.821,210.438 199.645,209.261 199.645,207.81L199.645,202.057C199.645,200.606 200.821,199.429 202.273,199.429C203.724,199.429 204.901,200.606 204.901,202.057L204.901,207.81C204.901,209.261 203.724,210.438 202.273,210.438Z" style="fill:rgb(189,187,187);fill-rule:nonzero;"/>
        <path d="M225.736,199.819C224.285,199.819 223.108,198.642 223.108,197.191L223.108,173.154C223.108,171.702 224.285,170.526 225.736,170.526C227.188,170.526 228.364,171.702 228.364,173.154L228.364,197.191C228.364,198.642 227.188,199.819 225.736,199.819Z" style="fill:rgb(189,187,187);fill-rule:nonzero;"/>
        <path d="M225.736,166.146C224.285,166.146 223.108,164.969 223.108,163.518L223.108,157.472C223.108,156.02 224.285,154.844 225.736,154.844C227.188,154.844 228.364,156.02 228.364,157.472L228.364,163.518C228.364,164.969 227.188,166.146 225.736,166.146Z" style="fill:rgb(189,187,187);fill-rule:nonzero;"/>
        <path d="M213.845,92.708C212.393,92.708 211.217,91.532 211.217,90.08L211.217,75.854C211.217,74.402 212.393,73.226 213.845,73.226C215.297,73.226 216.473,74.402 216.473,75.854L216.473,90.08C216.473,91.532 215.297,92.708 213.845,92.708Z" style="fill:rgb(189,187,187);fill-rule:nonzero;"/>
        <path d="M213.845,50.539C212.393,50.539 211.217,49.363 211.217,47.911L211.217,42.255C211.217,40.803 212.393,39.627 213.845,39.627C215.297,39.627 216.473,40.803 216.473,42.255L216.473,47.911C216.473,49.363 215.297,50.539 213.845,50.539Z" style="fill:rgb(189,187,187);fill-rule:nonzero;"/>
        <path d="M213.845,65.387C212.393,65.387 211.217,64.211 211.217,62.759L211.217,57.547C211.217,56.096 212.393,54.92 213.845,54.92C215.297,54.92 216.473,56.096 216.473,57.547L216.473,62.759C216.473,64.211 215.297,65.387 213.845,65.387Z" style="fill:rgb(189,187,187);fill-rule:nonzero;"/>
        <path d="M213.845,188.08C212.393,188.08 211.217,186.905 211.217,185.453L211.217,155.006C211.217,153.555 212.393,152.379 213.845,152.379C215.297,152.379 216.473,153.555 216.473,155.006L216.473,185.453C216.473,186.905 215.297,188.08 213.845,188.08Z" style="fill:rgb(189,187,187);fill-rule:nonzero;"/>
        <path d="M213.845,202.928C212.393,202.928 211.217,201.751 211.217,200.3L211.217,195.088C211.217,193.637 212.393,192.46 213.845,192.46C215.297,192.46 216.473,193.637 216.473,195.088L216.473,200.3C216.473,201.751 215.297,202.928 213.845,202.928Z" style="fill:rgb(189,187,187);fill-rule:nonzero;"/>
        <path d="M202.273,57.797C200.821,57.797 199.645,56.621 199.645,55.169L199.891,37.805C199.891,36.352 201.067,35.177 202.519,35.177C203.97,35.177 205.147,36.352 205.147,37.805L204.901,55.169C204.901,56.621 203.724,57.797 202.273,57.797Z" style="fill:rgb(189,187,187);fill-rule:nonzero;"/>
        <path d="M202.273,82.639C200.821,82.639 199.645,81.463 199.645,80.011L199.645,64.804C199.645,63.351 200.821,62.176 202.273,62.176C203.724,62.176 204.901,63.351 204.901,64.804L204.901,80.011C204.901,81.463 203.724,82.639 202.273,82.639Z" style="fill:rgb(189,187,187);fill-rule:nonzero;"/>
        <path d="M225.736,58.798C224.285,58.798 223.108,57.622 223.108,56.17L223.108,48.727C223.108,47.275 224.285,46.1 225.736,46.1C227.188,46.1 228.364,47.275 228.364,48.727L228.364,56.17C228.364,57.622 227.188,58.798 225.736,58.798Z" style="fill:rgb(189,187,187);fill-rule:nonzero;"/>
        <path d="M225.736,87.763C224.285,87.763 223.108,86.587 223.108,85.135L223.108,65.805C223.108,64.353 224.285,63.177 225.736,63.177C227.188,63.177 228.364,64.353 228.364,65.805L228.364,85.135C228.364,86.587 227.188,87.763 225.736,87.763Z" style="fill:rgb(189,187,187);fill-rule:nonzero;"/>
        <path d="M219.554,152.988L216.782,150.182C216.542,149.939 216.157,149.906 215.879,150.104C215.002,150.729 214.548,150.975 214.274,151.14C212.476,152.222 210.206,152.05 208.574,150.833L190.867,133.541C189.99,132.704 188.63,132.469 187.609,133.124C186.126,134.076 185.998,136.074 187.188,137.209L203.266,152.939C203.783,153.454 203.85,155.403 203.366,156.487C201.852,159.875 197.701,160.6 195.661,158.8L180.546,144.008C179.669,143.17 178.308,142.936 177.287,143.591C175.804,144.542 175.677,146.54 176.867,147.676L189.717,160.282C190.719,161.284 190.802,163.252 190.301,164.361C188.845,167.586 184.49,168.439 182.592,166.541L170.308,154.502C169.431,153.664 168.071,153.43 167.051,154.084C165.567,155.037 165.44,157.034 166.63,158.169L176.5,167.892C178.087,169.479 177.493,172.505 176.129,173.895C173.907,176.159 170.112,175.015 168.539,173.667C168.416,173.561 168.301,173.477 168.188,173.383L131.599,142.664C130.667,141.881 129.289,141.734 128.308,142.456C126.884,143.505 126.885,145.514 128.151,146.576L164.679,177.245C166.26,178.744 169.831,180.718 172.697,180.717C174.525,180.717 176.058,180.229 177.729,179.224C180.312,177.668 181.992,175.177 182.544,172.421C185.233,173.221 188.221,172.905 190.807,171.351C193.39,169.795 195.07,167.304 195.622,164.55C198.313,165.352 201.302,165.034 203.885,163.479C206.469,161.923 208.146,159.432 208.699,156.678C211.392,157.479 214.379,157.163 216.963,155.607C217.326,155.388 218.306,154.805 219.509,153.848C219.776,153.634 219.796,153.232 219.554,152.988Z" style="fill:rgb(57,172,173);fill-rule:nonzero;"/>
        <path d="M154.848,85.724L154.775,85.567C150.639,86.239 141.685,87.807 140.217,88.058C137.919,88.453 136.524,88.693 129.67,89.72C128.401,89.91 127.317,90.922 127.268,92.203C127.211,93.754 128.44,94.932 129.869,94.932C129.998,94.932 130.13,94.922 130.259,94.902C137.327,93.845 138.747,93.601 141.099,93.197C142.525,92.952 145.318,92.505 148.888,91.925L148.941,91.897L154.848,85.724Z" style="fill:rgb(57,172,173);fill-rule:nonzero;"/>
        <path d="M223.464,150.643C222.816,150.643 222.174,150.403 221.677,149.934C220.386,148.722 213.944,142.659 213.713,142.432L185.551,114.801C182.508,111.789 180.099,109.406 176.191,109.406L176.135,109.406C169.663,109.443 163.286,113.608 157.817,117.509C156.183,118.673 151.844,121.767 146.852,118.982C144.464,117.648 142.706,115.298 142.028,112.537C141.335,109.706 141.826,106.729 143.377,104.367C146.259,99.978 150.601,95.633 154.431,91.801C155.733,90.499 156.997,89.234 158.154,88.019C165.223,80.599 177.954,82.711 186.377,84.107L187.194,84.242C193.438,85.27 205.863,87.823 216.824,90.076C220.277,90.786 225.629,91.883 228.646,92.495C230.057,92.781 230.969,94.158 230.683,95.568C230.396,96.98 229.011,97.894 227.609,97.604C224.588,96.991 219.232,95.893 215.775,95.183C204.861,92.938 192.49,90.396 186.348,89.386L185.524,89.25C178.184,88.034 167.367,85.77 161.929,91.615C160.76,92.872 159.451,94.154 158.119,95.486C154.287,99.32 150.325,103.285 147.735,107.228C146.976,108.384 146.742,109.867 147.092,111.296C147.43,112.677 148.248,113.789 149.393,114.429C150.728,115.172 152.041,115.225 154.791,113.264C160.91,108.9 168.107,104.239 176.104,104.192L176.196,104.192C182.245,104.192 185.79,107.702 189.218,111.097L189.979,111.847L217.357,138.705C217.586,138.925 221.548,142.654 223.769,144.745C224.009,144.592 224.227,144.454 224.446,144.314C225.074,143.917 225.701,143.519 226.809,142.804C228.023,142.024 229.635,142.375 230.413,143.583C231.192,144.793 230.844,146.408 229.634,147.186C228.51,147.911 227.874,148.314 227.239,148.717C226.61,149.115 225.983,149.512 224.875,150.227C224.442,150.506 223.952,150.643 223.464,150.643Z" style="fill:rgb(223,109,38);fill-rule:nonzero;"/>
        <path d="M68.453,268.608L75.667,268.608C79.025,268.608 81.637,267.42 83.42,265.044C85.202,262.711 86.115,258.935 86.115,253.758C86.115,243.872 82.632,238.908 75.667,238.908L68.453,238.908C67.997,238.908 67.707,239.035 67.499,239.248C67.292,239.46 67.209,239.842 67.209,240.308L67.209,267.208C67.209,267.675 67.292,268.057 67.499,268.269C67.707,268.481 67.997,268.608 68.453,268.608ZM71.77,264.705L71.77,242.812L75.542,242.812C79.481,242.812 81.471,246.461 81.471,253.758C81.471,257.619 80.974,260.377 79.937,262.117C78.901,263.856 77.45,264.705 75.542,264.705L71.77,264.705Z" style="fill:rgb(65,64,67);fill-rule:nonzero;"/>
        <path d="M92.291,268.608L104.314,268.608C104.646,268.608 104.895,268.481 105.019,268.227C105.144,268.014 105.227,267.633 105.227,267.081L105.227,266.232C105.227,265.681 105.144,265.299 105.019,265.044C104.895,264.832 104.646,264.705 104.314,264.705L95.567,264.705L95.567,255.371L103.402,255.371C104.024,255.371 104.314,254.861 104.314,253.843L104.314,252.995C104.314,251.976 104.024,251.467 103.402,251.467L95.567,251.467L95.567,242.812L104.314,242.812C104.936,242.812 105.227,242.302 105.227,241.284L105.227,240.436C105.227,239.417 104.936,238.908 104.314,238.908L92.291,238.908C91.835,238.908 91.545,239.035 91.338,239.248C91.13,239.46 91.048,239.842 91.048,240.308L91.048,267.208C91.048,267.675 91.13,268.057 91.338,268.269C91.545,268.481 91.835,268.608 92.291,268.608Z" style="fill:rgb(65,64,67);fill-rule:nonzero;"/>
        <path d="M116.42,268.693L118.617,268.693C119.654,268.693 120.193,268.439 120.317,267.972L127.282,240.266C127.365,239.969 127.407,239.714 127.407,239.587C127.407,239.078 126.785,238.823 125.541,238.823L124.753,238.823C123.717,238.823 123.136,239.12 123.012,239.672L118.41,259.656C118.12,260.971 117.83,262.371 117.622,263.772L117.498,263.772C117.208,262.117 116.959,260.759 116.71,259.656L112.108,239.672C111.984,239.12 111.403,238.823 110.367,238.823L109.496,238.823C108.253,238.823 107.631,239.078 107.631,239.587C107.631,239.714 107.631,239.799 107.672,239.926C107.714,240.054 107.714,240.139 107.755,240.223L114.72,267.972C114.845,268.439 115.384,268.693 116.42,268.693Z" style="fill:rgb(65,64,67);fill-rule:nonzero;"/>
        <path d="M132.299,268.608L144.322,268.608C144.654,268.608 144.903,268.481 145.027,268.227C145.151,268.014 145.234,267.633 145.234,267.081L145.234,266.232C145.234,265.681 145.151,265.299 145.027,265.044C144.903,264.832 144.654,264.705 144.322,264.705L135.574,264.705L135.574,255.371L143.41,255.371C144.032,255.371 144.322,254.861 144.322,253.843L144.322,252.995C144.322,251.976 144.032,251.467 143.41,251.467L135.574,251.467L135.574,242.812L144.322,242.812C144.944,242.812 145.234,242.302 145.234,241.284L145.234,240.436C145.234,239.417 144.944,238.908 144.322,238.908L132.299,238.908C131.843,238.908 131.553,239.035 131.346,239.248C131.138,239.46 131.055,239.842 131.055,240.308L131.055,267.208C131.055,267.675 131.138,268.057 131.346,268.269C131.553,268.481 131.843,268.608 132.299,268.608Z" style="fill:rgb(65,64,67);fill-rule:nonzero;"/>
        <path d="M151.204,268.608L162.398,268.608C162.73,268.608 162.978,268.481 163.144,268.227C163.269,268.014 163.351,267.633 163.351,267.081L163.351,266.232C163.351,265.681 163.269,265.299 163.144,265.044C162.978,264.832 162.73,264.705 162.398,264.705L154.479,264.705L154.479,239.884C154.479,239.163 153.857,238.823 152.655,238.823L151.784,238.823C150.582,238.823 149.96,239.163 149.96,239.884L149.96,267.208C149.96,267.675 150.043,268.057 150.25,268.269C150.458,268.481 150.748,268.608 151.204,268.608Z" style="fill:rgb(65,64,67);fill-rule:nonzero;"/>
        <path d="M175.457,268.905C182.464,268.905 185.988,263.856 185.988,253.716C185.988,243.66 182.464,238.611 175.457,238.611C168.451,238.611 164.968,243.66 164.968,253.716C164.968,258.85 165.88,262.626 167.663,265.129C169.446,267.633 172.016,268.905 175.457,268.905ZM175.499,265.002C173.55,265.002 172.058,264.111 171.104,262.287C170.109,260.462 169.612,257.619 169.612,253.716C169.612,249.77 170.109,246.927 171.063,245.188C172.016,243.448 173.509,242.557 175.499,242.557C177.447,242.557 178.94,243.448 179.935,245.188C180.888,246.97 181.386,249.812 181.386,253.716C181.386,257.619 180.888,260.462 179.935,262.287C178.94,264.111 177.447,265.002 175.499,265.002Z" style="fill:rgb(65,64,67);fill-rule:nonzero;"/>
        <path d="M192.538,268.693L193.368,268.693C194.57,268.693 195.192,268.354 195.192,267.633L195.192,256.389L199.255,256.389C200.125,256.389 201.162,256.177 202.281,255.71C203.401,255.243 204.437,254.352 205.349,253.037C206.22,251.722 206.676,249.897 206.676,247.521C206.676,244.212 205.888,241.963 204.313,240.733C202.737,239.502 200.955,238.908 198.923,238.908L191.999,238.908C191.543,238.908 191.253,239.035 191.046,239.248C190.839,239.46 190.714,239.842 190.714,240.308L190.714,267.633C190.714,268.354 191.336,268.693 192.538,268.693ZM195.192,252.528L195.192,242.812L198.716,242.812C199.669,242.812 200.457,243.151 201.162,243.83C201.825,244.551 202.157,245.782 202.157,247.521C202.157,249.388 201.825,250.703 201.162,251.425C200.499,252.146 199.752,252.528 198.923,252.528L195.192,252.528Z" style="fill:rgb(65,64,67);fill-rule:nonzero;"/>
        <path d="M221.6,258.68L222.803,258.68C223.342,258.68 223.715,258.426 223.922,257.959L228.275,249.346C228.648,248.624 229.022,247.733 229.395,246.673L229.561,246.758C229.436,247.818 229.353,248.752 229.353,249.558L229.353,267.633C229.353,268.354 229.975,268.693 231.177,268.693L231.924,268.693C233.126,268.693 233.748,268.354 233.748,267.633L233.748,239.884C233.748,239.163 233.126,238.823 231.924,238.823L230.929,238.823C230.017,238.823 229.395,239.12 229.105,239.714L222.886,252.019C222.595,252.57 222.388,253.249 222.181,254.055C222.056,253.334 221.808,252.655 221.517,252.019L215.299,239.714C215.008,239.12 214.428,238.823 213.474,238.823L212.479,238.823C211.277,238.823 210.655,239.163 210.655,239.884L210.655,267.633C210.655,268.354 211.277,268.693 212.479,268.693L213.226,268.693C214.428,268.693 215.05,268.354 215.05,267.633L215.05,249.558C215.05,248.752 214.967,247.818 214.843,246.758L215.008,246.673C215.382,247.733 215.755,248.624 216.128,249.346L220.481,257.959C220.688,258.426 221.061,258.68 221.6,258.68Z" style="fill:rgb(65,64,67);fill-rule:nonzero;"/>
        <path d="M240.713,268.608L252.736,268.608C253.068,268.608 253.317,268.481 253.441,268.227C253.565,268.014 253.648,267.633 253.648,267.081L253.648,266.232C253.648,265.681 253.565,265.299 253.441,265.044C253.317,264.832 253.068,264.705 252.736,264.705L243.988,264.705L243.988,255.371L251.824,255.371C252.446,255.371 252.736,254.861 252.736,253.843L252.736,252.995C252.736,251.976 252.446,251.467 251.824,251.467L243.988,251.467L243.988,242.812L252.736,242.812C253.358,242.812 253.648,242.302 253.648,241.284L253.648,240.436C253.648,239.417 253.358,238.908 252.736,238.908L240.713,238.908C240.257,238.908 239.967,239.035 239.76,239.248C239.552,239.46 239.469,239.842 239.469,240.308L239.469,267.208C239.469,267.675 239.552,268.057 239.76,268.269C239.967,268.481 240.257,268.608 240.713,268.608Z" style="fill:rgb(65,64,67);fill-rule:nonzero;"/>
        <path d="M259.991,268.693L260.613,268.693C261.815,268.693 262.437,268.354 262.437,267.633L262.437,250.025C262.437,249.176 262.313,248.243 262.106,247.182L262.313,247.097C262.686,248.243 263.018,249.134 263.391,249.77L272.719,267.887C272.926,268.439 273.507,268.693 274.419,268.693L275.248,268.693C276.45,268.693 277.072,268.354 277.072,267.633L277.072,239.884C277.072,239.163 276.45,238.823 275.248,238.823L274.626,238.823C273.424,238.823 272.802,239.163 272.802,239.884L272.802,257.068C272.802,258.001 272.926,258.977 273.134,260.038L272.926,260.123C272.512,258.892 272.139,257.959 271.766,257.237L262.769,239.757C262.603,239.375 262.396,239.12 262.106,238.993C261.815,238.866 261.442,238.823 260.986,238.823L259.991,238.823C258.789,238.823 258.167,239.163 258.167,239.884L258.167,267.633C258.167,268.354 258.789,268.693 259.991,268.693Z" style="fill:rgb(65,64,67);fill-rule:nonzero;"/>
        <path d="M288.847,268.693L289.717,268.693C290.92,268.693 291.542,268.354 291.542,267.633L291.542,242.812L297.097,242.812C297.429,242.812 297.677,242.684 297.802,242.43C297.926,242.218 298.009,241.836 298.009,241.284L298.009,240.436C298.009,239.884 297.926,239.502 297.802,239.248C297.677,239.035 297.429,238.908 297.097,238.908L281.426,238.908C281.135,238.908 280.887,239.035 280.762,239.248C280.638,239.502 280.555,239.884 280.555,240.436L280.555,241.284C280.555,241.836 280.638,242.218 280.762,242.43C280.887,242.684 281.135,242.812 281.426,242.812L287.023,242.812L287.023,267.633C287.023,268.354 287.644,268.693 288.847,268.693Z" style="fill:rgb(65,64,67);fill-rule:nonzero;"/>
        <path d="M32.715,306.926L39.929,306.926C43.287,306.926 45.899,305.738 47.681,303.362C49.464,301.029 50.376,297.253 50.376,292.076C50.376,282.19 46.894,277.226 39.929,277.226L32.715,277.226C32.259,277.226 31.968,277.353 31.761,277.566C31.554,277.778 31.471,278.16 31.471,278.626L31.471,305.526C31.471,305.993 31.554,306.375 31.761,306.587C31.968,306.799 32.259,306.926 32.715,306.926ZM36.031,303.023L36.031,281.13L39.804,281.13C43.743,281.13 45.733,284.779 45.733,292.076C45.733,295.937 45.235,298.695 44.199,300.435C43.162,302.174 41.711,303.023 39.804,303.023L36.031,303.023Z" style="fill:rgb(65,64,67);fill-rule:nonzero;"/>
        <path d="M54.356,307.011L55.434,307.011C56.429,307.011 56.968,306.757 57.092,306.29L58.626,299.841L66.793,299.841L68.369,306.29C68.493,306.757 69.032,307.011 70.069,307.011L71.188,307.011C72.266,307.011 72.805,306.757 72.805,306.248C72.805,306.078 72.763,305.866 72.681,305.611L65.508,278.075C65.384,277.438 64.762,277.141 63.601,277.141L61.86,277.141C60.782,277.141 60.16,277.438 59.953,278.075L52.78,305.611C52.739,305.951 52.697,306.163 52.697,306.248C52.697,306.757 53.236,307.011 54.356,307.011ZM59.538,296.022L62.15,285.16C62.316,284.482 62.44,283.887 62.482,283.421L62.647,282.402L62.855,282.402C63.062,283.803 63.186,284.694 63.311,285.16L65.964,296.022L59.538,296.022Z" style="fill:rgb(65,64,67);fill-rule:nonzero;"/>
        <path d="M81.139,307.011L82.009,307.011C83.212,307.011 83.834,306.672 83.834,305.951L83.834,281.13L89.389,281.13C89.721,281.13 89.97,281.002 90.094,280.748C90.218,280.536 90.301,280.154 90.301,279.602L90.301,278.754C90.301,278.202 90.218,277.82 90.094,277.566C89.97,277.353 89.721,277.226 89.389,277.226L73.718,277.226C73.427,277.226 73.179,277.353 73.054,277.566C72.93,277.82 72.847,278.202 72.847,278.754L72.847,279.602C72.847,280.154 72.93,280.536 73.054,280.748C73.179,281.002 73.427,281.13 73.718,281.13L79.315,281.13L79.315,305.951C79.315,306.672 79.936,307.011 81.139,307.011Z" style="fill:rgb(65,64,67);fill-rule:nonzero;"/>
        <path d="M91.96,307.011L93.038,307.011C94.033,307.011 94.572,306.757 94.696,306.29L96.23,299.841L104.398,299.841L105.973,306.29C106.098,306.757 106.637,307.011 107.673,307.011L108.793,307.011C109.87,307.011 110.409,306.757 110.409,306.248C110.409,306.078 110.368,305.866 110.285,305.611L103.113,278.075C102.988,277.438 102.366,277.141 101.206,277.141L99.464,277.141C98.386,277.141 97.764,277.438 97.557,278.075L90.385,305.611C90.343,305.951 90.302,306.163 90.302,306.248C90.302,306.757 90.841,307.011 91.96,307.011ZM97.143,296.022L99.754,285.16C99.92,284.482 100.045,283.887 100.086,283.421L100.252,282.402L100.459,282.402C100.667,283.803 100.791,284.694 100.915,285.16L103.569,296.022L97.143,296.022Z" style="fill:rgb(65,64,67);fill-rule:nonzero;"/>
        <path d="M121.147,307.011L121.976,307.011C123.178,307.011 123.8,306.672 123.8,305.951L123.8,294.707L127.863,294.707C128.734,294.707 129.77,294.495 130.89,294.028C132.009,293.561 133.046,292.67 133.958,291.355C134.828,290.04 135.284,288.215 135.284,285.839C135.284,282.53 134.497,280.281 132.921,279.051C131.346,277.82 129.563,277.226 127.532,277.226L120.608,277.226C120.152,277.226 119.862,277.353 119.654,277.566C119.447,277.778 119.323,278.16 119.323,278.626L119.323,305.951C119.323,306.672 119.945,307.011 121.147,307.011ZM123.8,290.846L123.8,281.13L127.324,281.13C128.278,281.13 129.066,281.469 129.77,282.148C130.434,282.869 130.765,284.1 130.765,285.839C130.765,287.706 130.434,289.021 129.77,289.743C129.107,290.464 128.361,290.846 127.532,290.846L123.8,290.846Z" style="fill:rgb(65,64,67);fill-rule:nonzero;"/>
        <path d="M136.901,307.011L137.979,307.011C138.974,307.011 139.512,306.757 139.637,306.29L141.171,299.841L149.338,299.841L150.914,306.29C151.038,306.757 151.577,307.011 152.614,307.011L153.733,307.011C154.811,307.011 155.35,306.757 155.35,306.248C155.35,306.078 155.308,305.866 155.225,305.611L148.053,278.075C147.929,277.438 147.307,277.141 146.146,277.141L144.405,277.141C143.327,277.141 142.705,277.438 142.498,278.075L135.325,305.611C135.284,305.951 135.242,306.163 135.242,306.248C135.242,306.757 135.781,307.011 136.901,307.011ZM142.083,296.022L144.695,285.16C144.861,284.482 144.985,283.887 145.027,283.421L145.192,282.402L145.4,282.402C145.607,283.803 145.731,284.694 145.856,285.16L148.509,296.022L142.083,296.022Z" style="fill:rgb(65,64,67);fill-rule:nonzero;"/>
        <path d="M160.532,307.011L161.32,307.011C162.563,307.011 163.185,306.672 163.185,305.951L163.185,294.495L165.341,294.495C166.378,294.495 167.207,294.749 167.746,295.216C168.285,295.683 168.741,296.616 169.155,297.932L171.56,306.205C171.643,306.46 171.85,306.672 172.182,306.799C172.514,306.926 172.928,307.011 173.384,307.011L174.296,307.011C175.582,307.011 176.203,306.757 176.203,306.205C176.203,306.12 176.203,306.035 176.162,305.908C176.121,305.823 176.121,305.738 176.079,305.611L173.509,297.338C173.053,295.937 172.638,294.834 172.182,294.028C171.726,293.222 171.228,292.628 170.648,292.331L170.648,292.161C173.218,290.761 174.504,288.385 174.504,284.991C174.504,282.233 173.799,280.281 172.431,279.051C171.063,277.82 169.031,277.226 166.336,277.226L159.952,277.226C159.081,277.226 158.666,277.693 158.666,278.626L158.666,305.951C158.666,306.672 159.288,307.011 160.532,307.011ZM163.144,290.422L163.144,281.13L166.585,281.13C167.621,281.13 168.451,281.511 169.073,282.233C169.694,282.954 169.985,284.1 169.985,285.627C169.985,286.985 169.694,288.13 169.073,289.021C168.451,289.955 167.663,290.422 166.792,290.422L163.144,290.422Z" style="fill:rgb(65,64,67);fill-rule:nonzero;"/>
        <path d="M186.029,307.011L186.9,307.011C188.102,307.011 188.724,306.672 188.724,305.951L188.724,281.13L194.28,281.13C194.611,281.13 194.86,281.002 194.985,280.748C195.109,280.536 195.192,280.154 195.192,279.602L195.192,278.754C195.192,278.202 195.109,277.82 194.985,277.566C194.86,277.353 194.611,277.226 194.28,277.226L178.608,277.226C178.318,277.226 178.069,277.353 177.945,277.566C177.82,277.82 177.738,278.202 177.738,278.754L177.738,279.602C177.738,280.154 177.82,280.536 177.945,280.748C178.069,281.002 178.318,281.13 178.608,281.13L184.205,281.13L184.205,305.951C184.205,306.672 184.827,307.011 186.029,307.011Z" style="fill:rgb(65,64,67);fill-rule:nonzero;"/>
        <path d="M200.457,307.011L201.079,307.011C202.281,307.011 202.903,306.672 202.903,305.951L202.903,288.343C202.903,287.494 202.779,286.561 202.571,285.5L202.779,285.415C203.152,286.561 203.484,287.452 203.857,288.088L213.185,306.205C213.392,306.757 213.973,307.011 214.885,307.011L215.714,307.011C216.916,307.011 217.538,306.672 217.538,305.951L217.538,278.202C217.538,277.481 216.916,277.141 215.714,277.141L215.092,277.141C213.89,277.141 213.268,277.481 213.268,278.202L213.268,295.386C213.268,296.319 213.392,297.295 213.6,298.356L213.392,298.441C212.978,297.21 212.605,296.277 212.231,295.555L203.235,278.075C203.069,277.693 202.862,277.438 202.571,277.311C202.281,277.184 201.908,277.141 201.452,277.141L200.457,277.141C199.255,277.141 198.633,277.481 198.633,278.202L198.633,305.951C198.633,306.672 199.255,307.011 200.457,307.011Z" style="fill:rgb(65,64,67);fill-rule:nonzero;"/>
        <path d="M224.585,306.926L236.608,306.926C236.94,306.926 237.189,306.799 237.313,306.545C237.438,306.332 237.521,305.951 237.521,305.399L237.521,304.55C237.521,303.999 237.438,303.617 237.313,303.362C237.189,303.15 236.94,303.023 236.608,303.023L227.861,303.023L227.861,293.689L235.696,293.689C236.318,293.689 236.608,293.179 236.608,292.161L236.608,291.313C236.608,290.294 236.318,289.785 235.696,289.785L227.861,289.785L227.861,281.13L236.608,281.13C237.23,281.13 237.521,280.62 237.521,279.602L237.521,278.754C237.521,277.735 237.23,277.226 236.608,277.226L224.585,277.226C224.129,277.226 223.839,277.353 223.632,277.566C223.424,277.778 223.342,278.16 223.342,278.626L223.342,305.526C223.342,305.993 223.424,306.375 223.632,306.587C223.839,306.799 224.129,306.926 224.585,306.926Z" style="fill:rgb(65,64,67);fill-rule:nonzero;"/>
        <path d="M244.029,307.011L244.817,307.011C246.061,307.011 246.683,306.672 246.683,305.951L246.683,294.495L248.838,294.495C249.875,294.495 250.704,294.749 251.243,295.216C251.782,295.683 252.238,296.616 252.653,297.932L255.057,306.205C255.14,306.46 255.347,306.672 255.679,306.799C256.011,306.926 256.425,307.011 256.881,307.011L257.794,307.011C259.079,307.011 259.701,306.757 259.701,306.205C259.701,306.12 259.701,306.035 259.659,305.908C259.618,305.823 259.618,305.738 259.576,305.611L257.006,297.338C256.55,295.937 256.135,294.834 255.679,294.028C255.223,293.222 254.726,292.628 254.145,292.331L254.145,292.161C256.716,290.761 258.001,288.385 258.001,284.991C258.001,282.233 257.296,280.281 255.928,279.051C254.56,277.82 252.528,277.226 249.833,277.226L243.449,277.226C242.578,277.226 242.164,277.693 242.164,278.626L242.164,305.951C242.164,306.672 242.785,307.011 244.029,307.011ZM246.641,290.422L246.641,281.13L250.082,281.13C251.119,281.13 251.948,281.511 252.57,282.233C253.192,282.954 253.482,284.1 253.482,285.627C253.482,286.985 253.192,288.13 252.57,289.021C251.948,289.955 251.16,290.422 250.289,290.422L246.641,290.422Z" style="fill:rgb(65,64,67);fill-rule:nonzero;"/>
        <path d="M268.905,307.181C271.558,307.181 273.673,306.417 275.289,304.847C276.865,303.278 277.653,301.199 277.653,298.61C277.653,297.083 277.404,295.81 276.865,294.749C276.326,293.731 275.663,292.882 274.792,292.204C273.921,291.525 272.843,290.803 271.475,290.082C270.273,289.446 269.402,288.894 268.78,288.47C268.158,288.046 267.702,287.536 267.329,286.942C266.956,286.348 266.749,285.627 266.749,284.736C266.749,283.506 267.122,282.572 267.91,281.851C268.697,281.13 269.692,280.79 270.978,280.79C272.221,280.79 273.382,281.045 274.502,281.554C274.875,281.724 275.124,281.808 275.248,281.808C275.538,281.808 275.828,281.469 276.119,280.748C276.409,280.026 276.533,279.432 276.533,278.923C276.533,278.584 276.409,278.329 276.119,278.16C275.455,277.735 274.668,277.396 273.755,277.141C272.843,276.929 271.89,276.802 270.936,276.802C269.278,276.802 267.785,277.141 266.5,277.82C265.215,278.499 264.178,279.475 263.474,280.705C262.727,281.978 262.354,283.463 262.354,285.16C262.354,286.688 262.644,287.961 263.225,289.021C263.764,290.082 264.51,290.931 265.422,291.61C266.334,292.331 267.537,293.052 269.029,293.858C270.439,294.58 271.475,295.301 272.18,296.022C272.885,296.744 273.216,297.719 273.216,298.95C273.216,300.308 272.802,301.368 271.973,302.09C271.143,302.811 270.107,303.193 268.822,303.193C266.956,303.193 265.298,302.684 263.93,301.623C263.805,301.58 263.681,301.496 263.515,301.368C263.308,301.283 263.142,301.241 263.018,301.241C262.686,301.241 262.396,301.538 262.147,302.174C261.898,302.811 261.774,303.447 261.774,304.041C261.774,304.296 261.815,304.508 261.898,304.635C261.981,304.805 262.105,304.975 262.271,305.144C263.059,305.781 264.054,306.29 265.215,306.629C266.376,307.011 267.619,307.181 268.905,307.181Z" style="fill:rgb(65,64,67);fill-rule:nonzero;"/>
        <path d="M283.498,307.011L284.451,307.011C285.612,307.011 286.193,306.672 286.193,305.951L286.193,293.689L296.019,293.689L296.019,305.951C296.019,306.672 296.64,307.011 297.843,307.011L298.713,307.011C299.916,307.011 300.538,306.672 300.538,305.951L300.538,278.202C300.538,277.481 299.916,277.141 298.713,277.141L297.843,277.141C296.64,277.141 296.019,277.481 296.019,278.202L296.019,289.743L286.193,289.743L286.193,278.202C286.193,277.481 285.612,277.141 284.451,277.141L283.498,277.141C282.296,277.141 281.674,277.481 281.674,278.202L281.674,305.951C281.674,306.672 282.296,307.011 283.498,307.011Z" style="fill:rgb(65,64,67);fill-rule:nonzero;"/>
        <path d="M308.539,307.011L309.493,307.011C310.695,307.011 311.276,306.672 311.276,305.951L311.276,278.202C311.276,277.481 310.695,277.141 309.493,277.141L308.539,277.141C307.337,277.141 306.715,277.481 306.715,278.202L306.715,305.951C306.715,306.672 307.337,307.011 308.539,307.011Z" style="fill:rgb(65,64,67);fill-rule:nonzero;"/>
        <path d="M319.069,307.011L319.898,307.011C321.1,307.011 321.722,306.672 321.722,305.951L321.722,294.707L325.785,294.707C326.656,294.707 327.692,294.495 328.812,294.028C329.931,293.561 330.968,292.67 331.88,291.355C332.75,290.04 333.206,288.215 333.206,285.839C333.206,282.53 332.419,280.281 330.843,279.051C329.268,277.82 327.485,277.226 325.454,277.226L318.53,277.226C318.074,277.226 317.784,277.353 317.576,277.566C317.369,277.778 317.245,278.16 317.245,278.626L317.245,305.951C317.245,306.672 317.867,307.011 319.069,307.011ZM321.722,290.846L321.722,281.13L325.246,281.13C326.2,281.13 326.988,281.469 327.692,282.148C328.356,282.869 328.687,284.1 328.687,285.839C328.687,287.706 328.356,289.021 327.692,289.743C327.029,290.464 326.283,290.846 325.454,290.846L321.722,290.846Z" style="fill:rgb(65,64,67);fill-rule:nonzero;"/>
    </g>
</svg>
